<mxfile host="app.diagrams.net" modified="2021-09-06T18:12:54.392Z" agent="5.0 (Macintosh; Intel Mac OS X 10_15_7) AppleWebKit/537.36 (KHTML, like Gecko) Chrome/93.0.4577.63 Safari/537.36" etag="uEtfOrVIifedgkHR_qYm" version="15.0.6" type="github">
  <diagram name="Page-1" id="58cdce13-f638-feb5-8d6f-7d28b1aa9fa0">
    <mxGraphModel dx="573" dy="394" grid="1" gridSize="10" guides="1" tooltips="1" connect="1" arrows="1" fold="1" page="1" pageScale="1" pageWidth="1400" pageHeight="850" background="none" math="0" shadow="0">
      <root>
        <mxCell id="0" />
        <mxCell id="1" parent="0" />
        <mxCell id="eRKGvRsqzdBknRYkiLBJ-16" style="edgeStyle=orthogonalEdgeStyle;rounded=1;orthogonalLoop=1;jettySize=auto;html=1;entryX=0;entryY=0.5;entryDx=0;entryDy=0;strokeColor=#FF3333;" edge="1" parent="1" source="382b91b5511bd0f7-6" target="eRKGvRsqzdBknRYkiLBJ-15">
          <mxGeometry relative="1" as="geometry" />
        </mxCell>
        <mxCell id="382b91b5511bd0f7-6" value="Farmer" style="rounded=1;whiteSpace=wrap;html=1;arcSize=24;fillColor=#ffffc0;strokeColor=#ff0000;shadow=0;comic=0;labelBackgroundColor=none;fontFamily=Verdana;fontSize=12;fontColor=#000000;align=center;" parent="1" vertex="1">
          <mxGeometry x="190" y="120" width="80" height="60" as="geometry" />
        </mxCell>
        <mxCell id="2a3bc250acf0617d-8" value="frame" style="shape=umlFrame;whiteSpace=wrap;html=1;rounded=1;shadow=0;comic=0;labelBackgroundColor=none;strokeWidth=1;fontFamily=Verdana;fontSize=12;align=center;" parent="1" vertex="1">
          <mxGeometry x="30" y="35" width="90" height="75" as="geometry" />
        </mxCell>
        <mxCell id="2a3bc250acf0617d-7" value="Coffee State" style="swimlane;whiteSpace=wrap;html=1;rounded=1;shadow=0;comic=0;labelBackgroundColor=none;strokeWidth=1;fontFamily=Verdana;fontSize=12;align=center;" parent="1" vertex="1">
          <mxGeometry x="80" y="495" width="1150" height="200" as="geometry" />
        </mxCell>
        <mxCell id="3cde6dad864a17aa-10" style="edgeStyle=elbowEdgeStyle;html=1;labelBackgroundColor=none;endArrow=open;endSize=8;strokeColor=#ff0000;fontFamily=Verdana;fontSize=12;align=left;" parent="2a3bc250acf0617d-7" source="382b91b5511bd0f7-8" target="3cde6dad864a17aa-1" edge="1">
          <mxGeometry relative="1" as="geometry" />
        </mxCell>
        <mxCell id="382b91b5511bd0f7-8" value="Harvested&lt;br&gt;" style="rounded=1;whiteSpace=wrap;html=1;arcSize=24;fillColor=#ffffc0;strokeColor=#ff0000;shadow=0;comic=0;labelBackgroundColor=none;fontFamily=Verdana;fontSize=12;fontColor=#000000;align=center;" parent="2a3bc250acf0617d-7" vertex="1">
          <mxGeometry x="125" y="70" width="80" height="60" as="geometry" />
        </mxCell>
        <mxCell id="24f968d109e7d6b4-3" value="" style="ellipse;html=1;shape=endState;fillColor=#000000;strokeColor=#ff0000;rounded=1;shadow=0;comic=0;labelBackgroundColor=none;fontFamily=Verdana;fontSize=12;fontColor=#000000;align=center;" parent="2a3bc250acf0617d-7" vertex="1">
          <mxGeometry x="1090" y="85" width="30" height="30" as="geometry" />
        </mxCell>
        <mxCell id="3cde6dad864a17aa-9" style="edgeStyle=elbowEdgeStyle;html=1;labelBackgroundColor=none;endArrow=open;endSize=8;strokeColor=#ff0000;fontFamily=Verdana;fontSize=12;align=left;" parent="2a3bc250acf0617d-7" source="2a3bc250acf0617d-3" target="382b91b5511bd0f7-8" edge="1">
          <mxGeometry relative="1" as="geometry" />
        </mxCell>
        <mxCell id="2a3bc250acf0617d-3" value="" style="ellipse;html=1;shape=startState;fillColor=#000000;strokeColor=#ff0000;rounded=1;shadow=0;comic=0;labelBackgroundColor=none;fontFamily=Verdana;fontSize=12;fontColor=#000000;align=center;direction=south;" parent="2a3bc250acf0617d-7" vertex="1">
          <mxGeometry x="20" y="85" width="30" height="30" as="geometry" />
        </mxCell>
        <mxCell id="3cde6dad864a17aa-11" style="edgeStyle=elbowEdgeStyle;html=1;labelBackgroundColor=none;endArrow=open;endSize=8;strokeColor=#ff0000;fontFamily=Verdana;fontSize=12;align=left;entryX=0;entryY=0.5;entryDx=0;entryDy=0;" parent="2a3bc250acf0617d-7" source="3cde6dad864a17aa-1" target="eRKGvRsqzdBknRYkiLBJ-1" edge="1">
          <mxGeometry relative="1" as="geometry" />
        </mxCell>
        <mxCell id="3cde6dad864a17aa-1" value="Processed" style="rounded=1;whiteSpace=wrap;html=1;arcSize=24;fillColor=#ffffc0;strokeColor=#ff0000;shadow=0;comic=0;labelBackgroundColor=none;fontFamily=Verdana;fontSize=12;fontColor=#000000;align=center;" parent="2a3bc250acf0617d-7" vertex="1">
          <mxGeometry x="240" y="70" width="80" height="60" as="geometry" />
        </mxCell>
        <mxCell id="3cde6dad864a17aa-12" style="edgeStyle=elbowEdgeStyle;html=1;labelBackgroundColor=none;endArrow=open;endSize=8;strokeColor=#ff0000;fontFamily=Verdana;fontSize=12;align=left;" parent="2a3bc250acf0617d-7" source="3cde6dad864a17aa-2" target="24f968d109e7d6b4-3" edge="1">
          <mxGeometry relative="1" as="geometry" />
        </mxCell>
        <mxCell id="3cde6dad864a17aa-2" value="Purchased" style="rounded=1;whiteSpace=wrap;html=1;arcSize=24;fillColor=#ffffc0;strokeColor=#ff0000;shadow=0;comic=0;labelBackgroundColor=none;fontFamily=Verdana;fontSize=12;fontColor=#000000;align=center;" parent="2a3bc250acf0617d-7" vertex="1">
          <mxGeometry x="960" y="70" width="90" height="60" as="geometry" />
        </mxCell>
        <mxCell id="eRKGvRsqzdBknRYkiLBJ-5" style="edgeStyle=orthogonalEdgeStyle;rounded=1;orthogonalLoop=1;jettySize=auto;html=1;exitX=1;exitY=0.5;exitDx=0;exitDy=0;entryX=0;entryY=0.5;entryDx=0;entryDy=0;strokeColor=#FF3333;" edge="1" parent="2a3bc250acf0617d-7" source="eRKGvRsqzdBknRYkiLBJ-1" target="eRKGvRsqzdBknRYkiLBJ-2">
          <mxGeometry relative="1" as="geometry" />
        </mxCell>
        <mxCell id="eRKGvRsqzdBknRYkiLBJ-1" value="Packed" style="rounded=1;whiteSpace=wrap;html=1;arcSize=24;fillColor=#ffffc0;strokeColor=#ff0000;shadow=0;comic=0;labelBackgroundColor=none;fontFamily=Verdana;fontSize=12;fontColor=#000000;align=center;" vertex="1" parent="2a3bc250acf0617d-7">
          <mxGeometry x="360" y="70" width="80" height="60" as="geometry" />
        </mxCell>
        <mxCell id="eRKGvRsqzdBknRYkiLBJ-2" value="ForSale" style="rounded=1;whiteSpace=wrap;html=1;arcSize=24;fillColor=#ffffc0;strokeColor=#ff0000;shadow=0;comic=0;labelBackgroundColor=none;fontFamily=Verdana;fontSize=12;fontColor=#000000;align=center;" vertex="1" parent="2a3bc250acf0617d-7">
          <mxGeometry x="480" y="70" width="80" height="60" as="geometry" />
        </mxCell>
        <mxCell id="eRKGvRsqzdBknRYkiLBJ-4" style="edgeStyle=elbowEdgeStyle;html=1;labelBackgroundColor=none;endArrow=open;endSize=8;strokeColor=#ff0000;fontFamily=Verdana;fontSize=12;align=left;entryX=0;entryY=0.5;entryDx=0;entryDy=0;exitX=1;exitY=0.5;exitDx=0;exitDy=0;" edge="1" parent="2a3bc250acf0617d-7" source="eRKGvRsqzdBknRYkiLBJ-2" target="eRKGvRsqzdBknRYkiLBJ-9">
          <mxGeometry relative="1" as="geometry">
            <mxPoint x="410" y="605" as="sourcePoint" />
            <mxPoint x="450" y="605" as="targetPoint" />
          </mxGeometry>
        </mxCell>
        <mxCell id="eRKGvRsqzdBknRYkiLBJ-9" value="Sold" style="rounded=1;whiteSpace=wrap;html=1;arcSize=24;fillColor=#ffffc0;strokeColor=#ff0000;shadow=0;comic=0;labelBackgroundColor=none;fontFamily=Verdana;fontSize=12;fontColor=#000000;align=center;" vertex="1" parent="2a3bc250acf0617d-7">
          <mxGeometry x="600" y="70" width="80" height="60" as="geometry" />
        </mxCell>
        <mxCell id="eRKGvRsqzdBknRYkiLBJ-10" value="Shipped" style="rounded=1;whiteSpace=wrap;html=1;arcSize=24;fillColor=#ffffc0;strokeColor=#ff0000;shadow=0;comic=0;labelBackgroundColor=none;fontFamily=Verdana;fontSize=12;fontColor=#000000;align=center;" vertex="1" parent="2a3bc250acf0617d-7">
          <mxGeometry x="720" y="70" width="80" height="60" as="geometry" />
        </mxCell>
        <mxCell id="eRKGvRsqzdBknRYkiLBJ-11" value="Received" style="rounded=1;whiteSpace=wrap;html=1;arcSize=24;fillColor=#ffffc0;strokeColor=#ff0000;shadow=0;comic=0;labelBackgroundColor=none;fontFamily=Verdana;fontSize=12;fontColor=#000000;align=center;" vertex="1" parent="2a3bc250acf0617d-7">
          <mxGeometry x="840" y="70" width="80" height="60" as="geometry" />
        </mxCell>
        <mxCell id="eRKGvRsqzdBknRYkiLBJ-12" style="edgeStyle=elbowEdgeStyle;html=1;labelBackgroundColor=none;endArrow=open;endSize=8;strokeColor=#ff0000;fontFamily=Verdana;fontSize=12;align=left;entryX=0;entryY=0.5;entryDx=0;entryDy=0;exitX=1;exitY=0.5;exitDx=0;exitDy=0;" edge="1" parent="2a3bc250acf0617d-7" source="eRKGvRsqzdBknRYkiLBJ-9" target="eRKGvRsqzdBknRYkiLBJ-10">
          <mxGeometry relative="1" as="geometry">
            <mxPoint x="650" y="605" as="sourcePoint" />
            <mxPoint x="690" y="605" as="targetPoint" />
          </mxGeometry>
        </mxCell>
        <mxCell id="eRKGvRsqzdBknRYkiLBJ-13" style="edgeStyle=elbowEdgeStyle;html=1;labelBackgroundColor=none;endArrow=open;endSize=8;strokeColor=#ff0000;fontFamily=Verdana;fontSize=12;align=left;entryX=0;entryY=0.5;entryDx=0;entryDy=0;exitX=1;exitY=0.5;exitDx=0;exitDy=0;" edge="1" parent="2a3bc250acf0617d-7" source="eRKGvRsqzdBknRYkiLBJ-10" target="eRKGvRsqzdBknRYkiLBJ-11">
          <mxGeometry relative="1" as="geometry">
            <mxPoint x="770" y="605" as="sourcePoint" />
            <mxPoint x="810" y="605" as="targetPoint" />
          </mxGeometry>
        </mxCell>
        <mxCell id="eRKGvRsqzdBknRYkiLBJ-14" style="edgeStyle=elbowEdgeStyle;html=1;labelBackgroundColor=none;endArrow=open;endSize=8;strokeColor=#ff0000;fontFamily=Verdana;fontSize=12;align=left;entryX=0;entryY=0.5;entryDx=0;entryDy=0;exitX=1;exitY=0.5;exitDx=0;exitDy=0;" edge="1" parent="2a3bc250acf0617d-7" source="eRKGvRsqzdBknRYkiLBJ-11" target="3cde6dad864a17aa-2">
          <mxGeometry relative="1" as="geometry">
            <mxPoint x="890" y="605" as="sourcePoint" />
            <mxPoint x="930" y="605" as="targetPoint" />
          </mxGeometry>
        </mxCell>
        <mxCell id="382b91b5511bd0f7-1" value="" style="ellipse;html=1;shape=startState;fillColor=#000000;strokeColor=#ff0000;rounded=1;shadow=0;comic=0;labelBackgroundColor=none;fontFamily=Verdana;fontSize=12;fontColor=#000000;align=center;direction=south;" parent="1" vertex="1">
          <mxGeometry x="130" y="135" width="30" height="30" as="geometry" />
        </mxCell>
        <mxCell id="382b91b5511bd0f7-5" value="harvestItem" style="rounded=1;whiteSpace=wrap;html=1;arcSize=24;fillColor=#ffffc0;strokeColor=#ff0000;shadow=0;comic=0;labelBackgroundColor=none;fontFamily=Verdana;fontSize=12;fontColor=#000000;align=center;" parent="1" vertex="1">
          <mxGeometry x="190" y="310" width="80" height="50" as="geometry" />
        </mxCell>
        <mxCell id="2a3bc250acf0617d-9" style="edgeStyle=orthogonalEdgeStyle;html=1;labelBackgroundColor=none;endArrow=open;endSize=8;strokeColor=#ff0000;fontFamily=Verdana;fontSize=12;align=left;" parent="1" source="382b91b5511bd0f7-1" target="382b91b5511bd0f7-6" edge="1">
          <mxGeometry relative="1" as="geometry" />
        </mxCell>
        <mxCell id="2a3bc250acf0617d-12" style="edgeStyle=orthogonalEdgeStyle;html=1;labelBackgroundColor=none;endArrow=open;endSize=8;strokeColor=#ff0000;fontFamily=Verdana;fontSize=12;align=left;" parent="1" edge="1">
          <mxGeometry relative="1" as="geometry">
            <mxPoint x="230" y="180" as="sourcePoint" />
            <mxPoint x="230" y="310" as="targetPoint" />
            <Array as="points">
              <mxPoint x="230" y="180" />
              <mxPoint x="230" y="310" />
            </Array>
          </mxGeometry>
        </mxCell>
        <mxCell id="3cde6dad864a17aa-8" style="edgeStyle=elbowEdgeStyle;html=1;labelBackgroundColor=none;endArrow=open;endSize=8;strokeColor=#ff0000;fontFamily=Verdana;fontSize=12;align=left;exitX=0.5;exitY=1;exitDx=0;exitDy=0;" parent="1" source="382b91b5511bd0f7-5" target="2a3bc250acf0617d-7" edge="1">
          <mxGeometry relative="1" as="geometry">
            <mxPoint x="230" y="440" as="sourcePoint" />
            <mxPoint x="350" y="390" as="targetPoint" />
            <Array as="points">
              <mxPoint x="230" y="410" />
            </Array>
          </mxGeometry>
        </mxCell>
        <mxCell id="eRKGvRsqzdBknRYkiLBJ-20" style="edgeStyle=orthogonalEdgeStyle;rounded=1;orthogonalLoop=1;jettySize=auto;html=1;entryX=0.5;entryY=0;entryDx=0;entryDy=0;strokeColor=#FF3333;" edge="1" parent="1" source="eRKGvRsqzdBknRYkiLBJ-15" target="eRKGvRsqzdBknRYkiLBJ-17">
          <mxGeometry relative="1" as="geometry" />
        </mxCell>
        <mxCell id="eRKGvRsqzdBknRYkiLBJ-32" style="edgeStyle=orthogonalEdgeStyle;rounded=1;orthogonalLoop=1;jettySize=auto;html=1;strokeColor=#FF3333;" edge="1" parent="1" source="eRKGvRsqzdBknRYkiLBJ-15" target="eRKGvRsqzdBknRYkiLBJ-24">
          <mxGeometry relative="1" as="geometry" />
        </mxCell>
        <mxCell id="eRKGvRsqzdBknRYkiLBJ-15" value="Farmer" style="rounded=1;whiteSpace=wrap;html=1;arcSize=24;fillColor=#ffffc0;strokeColor=#ff0000;shadow=0;comic=0;labelBackgroundColor=none;fontFamily=Verdana;fontSize=12;fontColor=#000000;align=center;" vertex="1" parent="1">
          <mxGeometry x="320" y="120" width="80" height="60" as="geometry" />
        </mxCell>
        <mxCell id="eRKGvRsqzdBknRYkiLBJ-21" style="edgeStyle=orthogonalEdgeStyle;rounded=1;orthogonalLoop=1;jettySize=auto;html=1;entryX=0.5;entryY=0;entryDx=0;entryDy=0;strokeColor=#FF3333;" edge="1" parent="1" source="eRKGvRsqzdBknRYkiLBJ-17" target="eRKGvRsqzdBknRYkiLBJ-18">
          <mxGeometry relative="1" as="geometry" />
        </mxCell>
        <mxCell id="eRKGvRsqzdBknRYkiLBJ-17" value="Harvested" style="rounded=1;whiteSpace=wrap;html=1;arcSize=24;fillColor=#ffffc0;strokeColor=#ff0000;shadow=0;comic=0;labelBackgroundColor=none;fontFamily=Verdana;fontSize=12;fontColor=#000000;align=center;" vertex="1" parent="1">
          <mxGeometry x="320" y="220" width="80" height="40" as="geometry" />
        </mxCell>
        <mxCell id="eRKGvRsqzdBknRYkiLBJ-22" style="edgeStyle=orthogonalEdgeStyle;rounded=1;orthogonalLoop=1;jettySize=auto;html=1;entryX=0.5;entryY=0;entryDx=0;entryDy=0;strokeColor=#FF3333;" edge="1" parent="1" source="eRKGvRsqzdBknRYkiLBJ-18" target="eRKGvRsqzdBknRYkiLBJ-19">
          <mxGeometry relative="1" as="geometry" />
        </mxCell>
        <mxCell id="eRKGvRsqzdBknRYkiLBJ-18" value="verifyCaller" style="rounded=1;whiteSpace=wrap;html=1;arcSize=24;fillColor=#ffffc0;strokeColor=#ff0000;shadow=0;comic=0;labelBackgroundColor=none;fontFamily=Verdana;fontSize=12;fontColor=#000000;align=center;" vertex="1" parent="1">
          <mxGeometry x="320" y="280" width="80" height="40" as="geometry" />
        </mxCell>
        <mxCell id="eRKGvRsqzdBknRYkiLBJ-23" style="edgeStyle=orthogonalEdgeStyle;rounded=1;orthogonalLoop=1;jettySize=auto;html=1;entryX=0.244;entryY=-0.005;entryDx=0;entryDy=0;entryPerimeter=0;strokeColor=#FF3333;" edge="1" parent="1" source="eRKGvRsqzdBknRYkiLBJ-19" target="2a3bc250acf0617d-7">
          <mxGeometry relative="1" as="geometry" />
        </mxCell>
        <mxCell id="eRKGvRsqzdBknRYkiLBJ-19" value="processesItem" style="rounded=1;whiteSpace=wrap;html=1;arcSize=24;fillColor=#ffffc0;strokeColor=#ff0000;shadow=0;comic=0;labelBackgroundColor=none;fontFamily=Verdana;fontSize=12;fontColor=#000000;align=center;" vertex="1" parent="1">
          <mxGeometry x="310" y="360" width="100" height="40" as="geometry" />
        </mxCell>
        <mxCell id="eRKGvRsqzdBknRYkiLBJ-28" style="edgeStyle=orthogonalEdgeStyle;rounded=1;orthogonalLoop=1;jettySize=auto;html=1;entryX=0.5;entryY=0;entryDx=0;entryDy=0;strokeColor=#FF3333;" edge="1" parent="1" source="eRKGvRsqzdBknRYkiLBJ-24" target="eRKGvRsqzdBknRYkiLBJ-26">
          <mxGeometry relative="1" as="geometry" />
        </mxCell>
        <mxCell id="eRKGvRsqzdBknRYkiLBJ-34" style="edgeStyle=orthogonalEdgeStyle;rounded=1;orthogonalLoop=1;jettySize=auto;html=1;strokeColor=#FF3333;" edge="1" parent="1" source="eRKGvRsqzdBknRYkiLBJ-24" target="eRKGvRsqzdBknRYkiLBJ-33">
          <mxGeometry relative="1" as="geometry" />
        </mxCell>
        <mxCell id="eRKGvRsqzdBknRYkiLBJ-24" value="Farmer" style="rounded=1;whiteSpace=wrap;html=1;arcSize=24;fillColor=#ffffc0;strokeColor=#ff0000;shadow=0;comic=0;labelBackgroundColor=none;fontFamily=Verdana;fontSize=12;fontColor=#000000;align=center;" vertex="1" parent="1">
          <mxGeometry x="440" y="120" width="80" height="60" as="geometry" />
        </mxCell>
        <mxCell id="eRKGvRsqzdBknRYkiLBJ-25" style="edgeStyle=orthogonalEdgeStyle;rounded=1;orthogonalLoop=1;jettySize=auto;html=1;entryX=0.5;entryY=0;entryDx=0;entryDy=0;strokeColor=#FF3333;" edge="1" source="eRKGvRsqzdBknRYkiLBJ-26" target="eRKGvRsqzdBknRYkiLBJ-27" parent="1">
          <mxGeometry relative="1" as="geometry" />
        </mxCell>
        <mxCell id="eRKGvRsqzdBknRYkiLBJ-26" value="Processed" style="rounded=1;whiteSpace=wrap;html=1;arcSize=24;fillColor=#ffffc0;strokeColor=#ff0000;shadow=0;comic=0;labelBackgroundColor=none;fontFamily=Verdana;fontSize=12;fontColor=#000000;align=center;" vertex="1" parent="1">
          <mxGeometry x="440" y="220" width="80" height="40" as="geometry" />
        </mxCell>
        <mxCell id="eRKGvRsqzdBknRYkiLBJ-30" style="edgeStyle=orthogonalEdgeStyle;rounded=1;orthogonalLoop=1;jettySize=auto;html=1;entryX=0.5;entryY=0;entryDx=0;entryDy=0;strokeColor=#FF3333;" edge="1" parent="1" source="eRKGvRsqzdBknRYkiLBJ-27" target="eRKGvRsqzdBknRYkiLBJ-29">
          <mxGeometry relative="1" as="geometry" />
        </mxCell>
        <mxCell id="eRKGvRsqzdBknRYkiLBJ-27" value="verifyCaller" style="rounded=1;whiteSpace=wrap;html=1;arcSize=24;fillColor=#ffffc0;strokeColor=#ff0000;shadow=0;comic=0;labelBackgroundColor=none;fontFamily=Verdana;fontSize=12;fontColor=#000000;align=center;" vertex="1" parent="1">
          <mxGeometry x="440" y="280" width="80" height="40" as="geometry" />
        </mxCell>
        <mxCell id="eRKGvRsqzdBknRYkiLBJ-31" style="edgeStyle=orthogonalEdgeStyle;rounded=1;orthogonalLoop=1;jettySize=auto;html=1;entryX=0.348;entryY=0.003;entryDx=0;entryDy=0;entryPerimeter=0;strokeColor=#FF3333;" edge="1" parent="1" source="eRKGvRsqzdBknRYkiLBJ-29" target="2a3bc250acf0617d-7">
          <mxGeometry relative="1" as="geometry" />
        </mxCell>
        <mxCell id="eRKGvRsqzdBknRYkiLBJ-29" value="packItem" style="rounded=1;whiteSpace=wrap;html=1;arcSize=24;fillColor=#ffffc0;strokeColor=#ff0000;shadow=0;comic=0;labelBackgroundColor=none;fontFamily=Verdana;fontSize=12;fontColor=#000000;align=center;" vertex="1" parent="1">
          <mxGeometry x="435" y="360" width="90" height="40" as="geometry" />
        </mxCell>
        <mxCell id="eRKGvRsqzdBknRYkiLBJ-38" style="edgeStyle=orthogonalEdgeStyle;rounded=1;orthogonalLoop=1;jettySize=auto;html=1;entryX=0.5;entryY=0;entryDx=0;entryDy=0;strokeColor=#FF3333;" edge="1" parent="1" source="eRKGvRsqzdBknRYkiLBJ-33" target="eRKGvRsqzdBknRYkiLBJ-35">
          <mxGeometry relative="1" as="geometry" />
        </mxCell>
        <mxCell id="eRKGvRsqzdBknRYkiLBJ-43" style="edgeStyle=orthogonalEdgeStyle;rounded=1;orthogonalLoop=1;jettySize=auto;html=1;entryX=0;entryY=0.5;entryDx=0;entryDy=0;strokeColor=#FF3333;" edge="1" parent="1" source="eRKGvRsqzdBknRYkiLBJ-33" target="eRKGvRsqzdBknRYkiLBJ-42">
          <mxGeometry relative="1" as="geometry" />
        </mxCell>
        <mxCell id="eRKGvRsqzdBknRYkiLBJ-33" value="Farmer" style="rounded=1;whiteSpace=wrap;html=1;arcSize=24;fillColor=#ffffc0;strokeColor=#ff0000;shadow=0;comic=0;labelBackgroundColor=none;fontFamily=Verdana;fontSize=12;fontColor=#000000;align=center;" vertex="1" parent="1">
          <mxGeometry x="560" y="120" width="80" height="60" as="geometry" />
        </mxCell>
        <mxCell id="eRKGvRsqzdBknRYkiLBJ-39" style="edgeStyle=orthogonalEdgeStyle;rounded=1;orthogonalLoop=1;jettySize=auto;html=1;entryX=0.5;entryY=0;entryDx=0;entryDy=0;strokeColor=#FF3333;" edge="1" parent="1" source="eRKGvRsqzdBknRYkiLBJ-35" target="eRKGvRsqzdBknRYkiLBJ-36">
          <mxGeometry relative="1" as="geometry" />
        </mxCell>
        <mxCell id="eRKGvRsqzdBknRYkiLBJ-35" value="Packed" style="rounded=1;whiteSpace=wrap;html=1;arcSize=24;fillColor=#ffffc0;strokeColor=#ff0000;shadow=0;comic=0;labelBackgroundColor=none;fontFamily=Verdana;fontSize=12;fontColor=#000000;align=center;" vertex="1" parent="1">
          <mxGeometry x="560" y="220" width="80" height="40" as="geometry" />
        </mxCell>
        <mxCell id="eRKGvRsqzdBknRYkiLBJ-40" style="edgeStyle=orthogonalEdgeStyle;rounded=1;orthogonalLoop=1;jettySize=auto;html=1;entryX=0.5;entryY=0;entryDx=0;entryDy=0;strokeColor=#FF3333;" edge="1" parent="1" source="eRKGvRsqzdBknRYkiLBJ-36" target="eRKGvRsqzdBknRYkiLBJ-37">
          <mxGeometry relative="1" as="geometry" />
        </mxCell>
        <mxCell id="eRKGvRsqzdBknRYkiLBJ-36" value="verifyCaller" style="rounded=1;whiteSpace=wrap;html=1;arcSize=24;fillColor=#ffffc0;strokeColor=#ff0000;shadow=0;comic=0;labelBackgroundColor=none;fontFamily=Verdana;fontSize=12;fontColor=#000000;align=center;" vertex="1" parent="1">
          <mxGeometry x="560" y="280" width="80" height="40" as="geometry" />
        </mxCell>
        <mxCell id="eRKGvRsqzdBknRYkiLBJ-41" style="edgeStyle=orthogonalEdgeStyle;rounded=1;orthogonalLoop=1;jettySize=auto;html=1;entryX=0.452;entryY=0.003;entryDx=0;entryDy=0;entryPerimeter=0;strokeColor=#FF3333;" edge="1" parent="1" source="eRKGvRsqzdBknRYkiLBJ-37" target="2a3bc250acf0617d-7">
          <mxGeometry relative="1" as="geometry" />
        </mxCell>
        <mxCell id="eRKGvRsqzdBknRYkiLBJ-37" value="sellItem" style="rounded=1;whiteSpace=wrap;html=1;arcSize=24;fillColor=#ffffc0;strokeColor=#ff0000;shadow=0;comic=0;labelBackgroundColor=none;fontFamily=Verdana;fontSize=12;fontColor=#000000;align=center;" vertex="1" parent="1">
          <mxGeometry x="555" y="360" width="90" height="40" as="geometry" />
        </mxCell>
        <mxCell id="eRKGvRsqzdBknRYkiLBJ-45" style="edgeStyle=orthogonalEdgeStyle;rounded=1;orthogonalLoop=1;jettySize=auto;html=1;entryX=0.5;entryY=0;entryDx=0;entryDy=0;strokeColor=#FF3333;" edge="1" parent="1" source="eRKGvRsqzdBknRYkiLBJ-42" target="eRKGvRsqzdBknRYkiLBJ-44">
          <mxGeometry relative="1" as="geometry" />
        </mxCell>
        <mxCell id="eRKGvRsqzdBknRYkiLBJ-54" style="edgeStyle=orthogonalEdgeStyle;rounded=1;orthogonalLoop=1;jettySize=auto;html=1;entryX=0;entryY=0.5;entryDx=0;entryDy=0;strokeColor=#FF3333;" edge="1" parent="1" source="eRKGvRsqzdBknRYkiLBJ-42" target="eRKGvRsqzdBknRYkiLBJ-53">
          <mxGeometry relative="1" as="geometry" />
        </mxCell>
        <mxCell id="eRKGvRsqzdBknRYkiLBJ-42" value="Distributor" style="rounded=1;whiteSpace=wrap;html=1;arcSize=24;fillColor=#ffffc0;strokeColor=#ff0000;shadow=0;comic=0;labelBackgroundColor=none;fontFamily=Verdana;fontSize=12;fontColor=#000000;align=center;" vertex="1" parent="1">
          <mxGeometry x="680" y="120" width="80" height="60" as="geometry" />
        </mxCell>
        <mxCell id="eRKGvRsqzdBknRYkiLBJ-47" style="edgeStyle=orthogonalEdgeStyle;rounded=1;orthogonalLoop=1;jettySize=auto;html=1;entryX=0.5;entryY=0;entryDx=0;entryDy=0;strokeColor=#FF3333;" edge="1" parent="1" source="eRKGvRsqzdBknRYkiLBJ-44" target="eRKGvRsqzdBknRYkiLBJ-46">
          <mxGeometry relative="1" as="geometry" />
        </mxCell>
        <mxCell id="eRKGvRsqzdBknRYkiLBJ-44" value="forSale" style="rounded=1;whiteSpace=wrap;html=1;arcSize=24;fillColor=#ffffc0;strokeColor=#ff0000;shadow=0;comic=0;labelBackgroundColor=none;fontFamily=Verdana;fontSize=12;fontColor=#000000;align=center;" vertex="1" parent="1">
          <mxGeometry x="680" y="200" width="80" height="40" as="geometry" />
        </mxCell>
        <mxCell id="eRKGvRsqzdBknRYkiLBJ-49" style="edgeStyle=orthogonalEdgeStyle;rounded=1;orthogonalLoop=1;jettySize=auto;html=1;entryX=0.5;entryY=0;entryDx=0;entryDy=0;strokeColor=#FF3333;" edge="1" parent="1" source="eRKGvRsqzdBknRYkiLBJ-46" target="eRKGvRsqzdBknRYkiLBJ-48">
          <mxGeometry relative="1" as="geometry" />
        </mxCell>
        <mxCell id="eRKGvRsqzdBknRYkiLBJ-46" value="paidEnough" style="rounded=1;whiteSpace=wrap;html=1;arcSize=24;fillColor=#ffffc0;strokeColor=#ff0000;shadow=0;comic=0;labelBackgroundColor=none;fontFamily=Verdana;fontSize=12;fontColor=#000000;align=center;" vertex="1" parent="1">
          <mxGeometry x="680" y="260" width="80" height="40" as="geometry" />
        </mxCell>
        <mxCell id="eRKGvRsqzdBknRYkiLBJ-51" style="edgeStyle=orthogonalEdgeStyle;rounded=1;orthogonalLoop=1;jettySize=auto;html=1;entryX=0.5;entryY=0;entryDx=0;entryDy=0;strokeColor=#FF3333;" edge="1" parent="1" source="eRKGvRsqzdBknRYkiLBJ-48" target="eRKGvRsqzdBknRYkiLBJ-50">
          <mxGeometry relative="1" as="geometry" />
        </mxCell>
        <mxCell id="eRKGvRsqzdBknRYkiLBJ-48" value="checkValue" style="rounded=1;whiteSpace=wrap;html=1;arcSize=24;fillColor=#ffffc0;strokeColor=#ff0000;shadow=0;comic=0;labelBackgroundColor=none;fontFamily=Verdana;fontSize=12;fontColor=#000000;align=center;" vertex="1" parent="1">
          <mxGeometry x="680" y="320" width="80" height="40" as="geometry" />
        </mxCell>
        <mxCell id="eRKGvRsqzdBknRYkiLBJ-52" style="edgeStyle=orthogonalEdgeStyle;rounded=1;orthogonalLoop=1;jettySize=auto;html=1;entryX=0.557;entryY=0.003;entryDx=0;entryDy=0;entryPerimeter=0;strokeColor=#FF3333;" edge="1" parent="1" source="eRKGvRsqzdBknRYkiLBJ-50" target="2a3bc250acf0617d-7">
          <mxGeometry relative="1" as="geometry" />
        </mxCell>
        <mxCell id="eRKGvRsqzdBknRYkiLBJ-50" value="buyItem" style="rounded=1;whiteSpace=wrap;html=1;arcSize=24;fillColor=#ffffc0;strokeColor=#ff0000;shadow=0;comic=0;labelBackgroundColor=none;fontFamily=Verdana;fontSize=12;fontColor=#000000;align=center;" vertex="1" parent="1">
          <mxGeometry x="675" y="390" width="90" height="40" as="geometry" />
        </mxCell>
        <mxCell id="eRKGvRsqzdBknRYkiLBJ-58" style="edgeStyle=orthogonalEdgeStyle;rounded=1;orthogonalLoop=1;jettySize=auto;html=1;entryX=0.5;entryY=0;entryDx=0;entryDy=0;strokeColor=#FF3333;" edge="1" parent="1" source="eRKGvRsqzdBknRYkiLBJ-53" target="eRKGvRsqzdBknRYkiLBJ-55">
          <mxGeometry relative="1" as="geometry" />
        </mxCell>
        <mxCell id="eRKGvRsqzdBknRYkiLBJ-64" style="edgeStyle=orthogonalEdgeStyle;rounded=1;orthogonalLoop=1;jettySize=auto;html=1;entryX=-0.04;entryY=0.505;entryDx=0;entryDy=0;entryPerimeter=0;strokeColor=#FF3333;" edge="1" parent="1" source="eRKGvRsqzdBknRYkiLBJ-53" target="eRKGvRsqzdBknRYkiLBJ-62">
          <mxGeometry relative="1" as="geometry" />
        </mxCell>
        <mxCell id="eRKGvRsqzdBknRYkiLBJ-53" value="Distributor" style="rounded=1;whiteSpace=wrap;html=1;arcSize=24;fillColor=#ffffc0;strokeColor=#ff0000;shadow=0;comic=0;labelBackgroundColor=none;fontFamily=Verdana;fontSize=12;fontColor=#000000;align=center;" vertex="1" parent="1">
          <mxGeometry x="800" y="120" width="80" height="60" as="geometry" />
        </mxCell>
        <mxCell id="eRKGvRsqzdBknRYkiLBJ-59" style="edgeStyle=orthogonalEdgeStyle;rounded=1;orthogonalLoop=1;jettySize=auto;html=1;entryX=0.5;entryY=0;entryDx=0;entryDy=0;strokeColor=#FF3333;" edge="1" parent="1" source="eRKGvRsqzdBknRYkiLBJ-55" target="eRKGvRsqzdBknRYkiLBJ-56">
          <mxGeometry relative="1" as="geometry" />
        </mxCell>
        <mxCell id="eRKGvRsqzdBknRYkiLBJ-55" value="sold" style="rounded=1;whiteSpace=wrap;html=1;arcSize=24;fillColor=#ffffc0;strokeColor=#ff0000;shadow=0;comic=0;labelBackgroundColor=none;fontFamily=Verdana;fontSize=12;fontColor=#000000;align=center;" vertex="1" parent="1">
          <mxGeometry x="800" y="220" width="80" height="40" as="geometry" />
        </mxCell>
        <mxCell id="eRKGvRsqzdBknRYkiLBJ-60" style="edgeStyle=orthogonalEdgeStyle;rounded=1;orthogonalLoop=1;jettySize=auto;html=1;entryX=0.5;entryY=0;entryDx=0;entryDy=0;strokeColor=#FF3333;" edge="1" parent="1" source="eRKGvRsqzdBknRYkiLBJ-56" target="eRKGvRsqzdBknRYkiLBJ-57">
          <mxGeometry relative="1" as="geometry" />
        </mxCell>
        <mxCell id="eRKGvRsqzdBknRYkiLBJ-56" value="verifyCaller" style="rounded=1;whiteSpace=wrap;html=1;arcSize=24;fillColor=#ffffc0;strokeColor=#ff0000;shadow=0;comic=0;labelBackgroundColor=none;fontFamily=Verdana;fontSize=12;fontColor=#000000;align=center;" vertex="1" parent="1">
          <mxGeometry x="800" y="290" width="80" height="40" as="geometry" />
        </mxCell>
        <mxCell id="eRKGvRsqzdBknRYkiLBJ-61" style="edgeStyle=orthogonalEdgeStyle;rounded=1;orthogonalLoop=1;jettySize=auto;html=1;entryX=0.661;entryY=0.003;entryDx=0;entryDy=0;entryPerimeter=0;strokeColor=#FF3333;" edge="1" parent="1" source="eRKGvRsqzdBknRYkiLBJ-57" target="2a3bc250acf0617d-7">
          <mxGeometry relative="1" as="geometry" />
        </mxCell>
        <mxCell id="eRKGvRsqzdBknRYkiLBJ-57" value="shipItem" style="rounded=1;whiteSpace=wrap;html=1;arcSize=24;fillColor=#ffffc0;strokeColor=#ff0000;shadow=0;comic=0;labelBackgroundColor=none;fontFamily=Verdana;fontSize=12;fontColor=#000000;align=center;" vertex="1" parent="1">
          <mxGeometry x="795" y="380" width="90" height="40" as="geometry" />
        </mxCell>
        <mxCell id="eRKGvRsqzdBknRYkiLBJ-65" style="edgeStyle=orthogonalEdgeStyle;rounded=1;orthogonalLoop=1;jettySize=auto;html=1;entryX=0;entryY=0.5;entryDx=0;entryDy=0;strokeColor=#FF3333;" edge="1" parent="1" source="eRKGvRsqzdBknRYkiLBJ-62" target="eRKGvRsqzdBknRYkiLBJ-63">
          <mxGeometry relative="1" as="geometry" />
        </mxCell>
        <mxCell id="eRKGvRsqzdBknRYkiLBJ-68" style="edgeStyle=orthogonalEdgeStyle;rounded=1;orthogonalLoop=1;jettySize=auto;html=1;entryX=0.5;entryY=0;entryDx=0;entryDy=0;strokeColor=#FF3333;" edge="1" parent="1" source="eRKGvRsqzdBknRYkiLBJ-62" target="eRKGvRsqzdBknRYkiLBJ-66">
          <mxGeometry relative="1" as="geometry" />
        </mxCell>
        <mxCell id="eRKGvRsqzdBknRYkiLBJ-62" value="Retailer" style="rounded=1;whiteSpace=wrap;html=1;arcSize=24;fillColor=#ffffc0;strokeColor=#ff0000;shadow=0;comic=0;labelBackgroundColor=none;fontFamily=Verdana;fontSize=12;fontColor=#000000;align=center;" vertex="1" parent="1">
          <mxGeometry x="920" y="120" width="80" height="60" as="geometry" />
        </mxCell>
        <mxCell id="eRKGvRsqzdBknRYkiLBJ-69" style="edgeStyle=orthogonalEdgeStyle;rounded=1;orthogonalLoop=1;jettySize=auto;html=1;entryX=0.5;entryY=0;entryDx=0;entryDy=0;strokeColor=#FF3333;" edge="1" parent="1" source="eRKGvRsqzdBknRYkiLBJ-63" target="eRKGvRsqzdBknRYkiLBJ-67">
          <mxGeometry relative="1" as="geometry" />
        </mxCell>
        <mxCell id="eRKGvRsqzdBknRYkiLBJ-63" value="Consumer" style="rounded=1;whiteSpace=wrap;html=1;arcSize=24;fillColor=#ffffc0;strokeColor=#ff0000;shadow=0;comic=0;labelBackgroundColor=none;fontFamily=Verdana;fontSize=12;fontColor=#000000;align=center;" vertex="1" parent="1">
          <mxGeometry x="1040" y="120" width="80" height="60" as="geometry" />
        </mxCell>
        <mxCell id="eRKGvRsqzdBknRYkiLBJ-74" style="edgeStyle=orthogonalEdgeStyle;rounded=1;orthogonalLoop=1;jettySize=auto;html=1;entryX=0.5;entryY=0;entryDx=0;entryDy=0;strokeColor=#FF3333;" edge="1" parent="1" source="eRKGvRsqzdBknRYkiLBJ-66" target="eRKGvRsqzdBknRYkiLBJ-70">
          <mxGeometry relative="1" as="geometry" />
        </mxCell>
        <mxCell id="eRKGvRsqzdBknRYkiLBJ-66" value="shipped" style="rounded=1;whiteSpace=wrap;html=1;arcSize=24;fillColor=#ffffc0;strokeColor=#ff0000;shadow=0;comic=0;labelBackgroundColor=none;fontFamily=Verdana;fontSize=12;fontColor=#000000;align=center;" vertex="1" parent="1">
          <mxGeometry x="920" y="220" width="80" height="40" as="geometry" />
        </mxCell>
        <mxCell id="eRKGvRsqzdBknRYkiLBJ-77" style="edgeStyle=orthogonalEdgeStyle;rounded=1;orthogonalLoop=1;jettySize=auto;html=1;entryX=0.5;entryY=0;entryDx=0;entryDy=0;strokeColor=#FF3333;" edge="1" parent="1" source="eRKGvRsqzdBknRYkiLBJ-67" target="eRKGvRsqzdBknRYkiLBJ-71">
          <mxGeometry relative="1" as="geometry" />
        </mxCell>
        <mxCell id="eRKGvRsqzdBknRYkiLBJ-67" value="received" style="rounded=1;whiteSpace=wrap;html=1;arcSize=24;fillColor=#ffffc0;strokeColor=#ff0000;shadow=0;comic=0;labelBackgroundColor=none;fontFamily=Verdana;fontSize=12;fontColor=#000000;align=center;" vertex="1" parent="1">
          <mxGeometry x="1040" y="220" width="80" height="40" as="geometry" />
        </mxCell>
        <mxCell id="eRKGvRsqzdBknRYkiLBJ-75" style="edgeStyle=orthogonalEdgeStyle;rounded=1;orthogonalLoop=1;jettySize=auto;html=1;entryX=0.5;entryY=0;entryDx=0;entryDy=0;strokeColor=#FF3333;" edge="1" parent="1" source="eRKGvRsqzdBknRYkiLBJ-70" target="eRKGvRsqzdBknRYkiLBJ-72">
          <mxGeometry relative="1" as="geometry" />
        </mxCell>
        <mxCell id="eRKGvRsqzdBknRYkiLBJ-70" value="isRetailer" style="rounded=1;whiteSpace=wrap;html=1;arcSize=24;fillColor=#ffffc0;strokeColor=#ff0000;shadow=0;comic=0;labelBackgroundColor=none;fontFamily=Verdana;fontSize=12;fontColor=#000000;align=center;" vertex="1" parent="1">
          <mxGeometry x="920" y="290" width="80" height="40" as="geometry" />
        </mxCell>
        <mxCell id="eRKGvRsqzdBknRYkiLBJ-78" style="edgeStyle=orthogonalEdgeStyle;rounded=1;orthogonalLoop=1;jettySize=auto;html=1;entryX=0.5;entryY=0;entryDx=0;entryDy=0;strokeColor=#FF3333;" edge="1" parent="1" source="eRKGvRsqzdBknRYkiLBJ-71" target="eRKGvRsqzdBknRYkiLBJ-73">
          <mxGeometry relative="1" as="geometry" />
        </mxCell>
        <mxCell id="eRKGvRsqzdBknRYkiLBJ-71" value="isConsumer" style="rounded=1;whiteSpace=wrap;html=1;arcSize=24;fillColor=#ffffc0;strokeColor=#ff0000;shadow=0;comic=0;labelBackgroundColor=none;fontFamily=Verdana;fontSize=12;fontColor=#000000;align=center;" vertex="1" parent="1">
          <mxGeometry x="1040" y="290" width="80" height="40" as="geometry" />
        </mxCell>
        <mxCell id="eRKGvRsqzdBknRYkiLBJ-76" style="edgeStyle=orthogonalEdgeStyle;rounded=1;orthogonalLoop=1;jettySize=auto;html=1;entryX=0.766;entryY=0.005;entryDx=0;entryDy=0;entryPerimeter=0;strokeColor=#FF3333;" edge="1" parent="1" source="eRKGvRsqzdBknRYkiLBJ-72" target="2a3bc250acf0617d-7">
          <mxGeometry relative="1" as="geometry" />
        </mxCell>
        <mxCell id="eRKGvRsqzdBknRYkiLBJ-72" value="receiveItem" style="rounded=1;whiteSpace=wrap;html=1;arcSize=24;fillColor=#ffffc0;strokeColor=#ff0000;shadow=0;comic=0;labelBackgroundColor=none;fontFamily=Verdana;fontSize=12;fontColor=#000000;align=center;" vertex="1" parent="1">
          <mxGeometry x="915" y="380" width="90" height="40" as="geometry" />
        </mxCell>
        <mxCell id="eRKGvRsqzdBknRYkiLBJ-79" style="edgeStyle=orthogonalEdgeStyle;rounded=1;orthogonalLoop=1;jettySize=auto;html=1;entryX=0.869;entryY=0.003;entryDx=0;entryDy=0;entryPerimeter=0;strokeColor=#FF3333;" edge="1" parent="1" source="eRKGvRsqzdBknRYkiLBJ-73" target="2a3bc250acf0617d-7">
          <mxGeometry relative="1" as="geometry" />
        </mxCell>
        <mxCell id="eRKGvRsqzdBknRYkiLBJ-73" value="purchaseItem" style="rounded=1;whiteSpace=wrap;html=1;arcSize=24;fillColor=#ffffc0;strokeColor=#ff0000;shadow=0;comic=0;labelBackgroundColor=none;fontFamily=Verdana;fontSize=12;fontColor=#000000;align=center;" vertex="1" parent="1">
          <mxGeometry x="1035" y="380" width="90" height="40" as="geometry" />
        </mxCell>
      </root>
    </mxGraphModel>
  </diagram>
</mxfile>
